<svg xmlns="http://www.w3.org/2000/svg" xmlns:svg="http://www.w3.org/2000/svg" id="Layer_1" x="0" y="0" enable-background="new 0 0 22 22" version="1.1" viewBox="0 0 22 22" xml:space="preserve"><metadata id="metadata4027"/><style id="style3883" type="text/css">.st0{fill:none;stroke:#fff;stroke-width:1.4;stroke-miterlimit:10}.st1{fill:#ef6c00}.st2{display:none}.st3{display:inline;fill:none;stroke:#9e9e9e;stroke-width:2.000000e-02;stroke-miterlimit:10}</style><path id="path3885" d="M9.1,17.1" class="st0"/><path id="path3887" d="M9.1,2.8" class="st0"/><path id="path3889" d="M8.5,19.2" class="st0"/><path id="path3891" d="M8.5,1.8" class="st0"/><path id="path3893" d="M18.7,3.3v15.4H3.3V3.3H18.7 M20.2,1.8H1.8v18.3h18.3l0,0L20.2,1.8L20.2,1.8z" class="st1"/><g id="g3897"><polygon id="polygon3895" points="16.5 16.5 11.1 12.2 5.5 16.5 5.5 5.5 16.5 5.5" class="st1"/></g><g id="grid" class="st2"><line id="line3899" x1="11" x2="11" y1="0" y2="22" class="st3"/><path id="path3901" d="M21.5,11" class="st3"/><path id="path3903" d="M0.4,11" class="st3"/><line id="line3905" x1="0" x2="22" y1="22" y2="0" class="st3"/><line id="line3907" x1="11" x2="22" y1="0" y2="11" class="st3"/><line id="line3909" x1="0" x2="11" y1="11" y2="22" class="st3"/><line id="line3911" x1="22" x2="11" y1="11" y2="22" class="st3"/><line id="line3913" x1="11" x2="0" y1="0" y2="11" class="st3"/><line id="line3915" x1="14.3" x2="14.3" y1="0" y2="22" class="st3"/><line id="line3917" x1="7.7" x2="7.7" y1="0" y2="22" class="st3"/><line id="line3919" x1="3.3" x2="3.3" y1="0" y2="22" class="st3"/><line id="line3921" x1="18.7" x2="18.7" y1="0" y2="22" class="st3"/><line id="line3923" x1="22" x2="0" y1="11" y2="11" class="st3"/><line id="line3925" x1="22" x2="0" y1="14.3" y2="14.3" class="st3"/><line id="line3927" x1="22" x2="0" y1="7.7" y2="7.7" class="st3"/><line id="line3929" x1="22" x2="0" y1="3.3" y2="3.3" class="st3"/><line id="line3931" x1="22" x2="0" y1="18.7" y2="18.7" class="st3"/><line id="line3933" x1="2.2" x2="2.2" y1="0" y2="22" class="st3"/><line id="line3935" x1="19.8" x2="19.8" y1="0" y2="22" class="st3"/><line id="line3937" x1="0" x2="22" y1="19.8" y2="19.8" class="st3"/><line id="line3939" x1="0" x2="22" y1="2.2" y2="2.2" class="st3"/><line id="line3941" x1="17.6" x2="17.6" y1="0" y2="22" class="st3"/><line id="line3943" x1="11" x2="20.3" y1="1.6" y2="11" class="st3"/><line id="line3945" x1="1.6" x2="11" y1="11" y2="20.3" class="st3"/><line id="line3947" x1="20.3" x2="11" y1="11" y2="20.3" class="st3"/><line id="line3949" x1="11" x2="1.6" y1="1.6" y2="11" class="st3"/><line id="line3951" x1="0" x2="22" y1="0" y2="22" class="st3"/><line id="line3953" x1="6.6" x2="6.6" y1="0" y2="22" class="st3"/><line id="line3955" x1="15.4" x2="15.4" y1="0" y2="22" class="st3"/><line id="line3957" x1="0" x2="22" y1="15.4" y2="15.4" class="st3"/><line id="line3959" x1="0" x2="22" y1="6.6" y2="6.6" class="st3"/><line id="line3961" x1="20.9" x2="0" y1="22" y2="1.1" class="st3"/><line id="line3963" x1="1.1" x2="22" y1="0" y2="20.9" class="st3"/><path id="path3965" d="M22,22" class="st3"/><path id="path3967" d="M0,0" class="st3"/><line id="line3969" x1="20.9" x2="0" y1="22" y2="1.1" class="st3"/><line id="line3971" x1="1.1" x2="22" y1="0" y2="20.9" class="st3"/><line id="line3973" x1="0" x2="20.9" y1="20.9" y2="0" class="st3"/><line id="line3975" x1="22" x2="1.1" y1="1.1" y2="22" class="st3"/><line id="line3977" x1="4.4" x2="4.4" y1="0" y2="22" class="st3"/><line id="line3979" x1="22" x2="0" y1="17.6" y2="17.6" class="st3"/><line id="line3981" x1="22" x2="0" y1="4.4" y2="4.4" class="st3"/><rect id="rect3983" width="6.2" height="6.2" x="7.9" y="7.9" class="st3" transform="matrix(0.7071 -0.7071 0.7071 0.7071 -4.5549 11.0015)"/><line id="line3985" x1="0" x2="22" y1="16.5" y2="16.5" class="st3"/><line id="line3987" x1="16.5" x2="16.5" y1="22" y2="0" class="st3"/><line id="line3989" x1="5.5" x2="5.5" y1="22" y2="0" class="st3"/><line id="line3991" x1="22" x2="0" y1="5.5" y2="5.5" class="st3"/><line id="line3993" x1="12.1" x2="12.1" y1="0" y2="22" class="st3"/><line id="line3995" x1="13.2" x2="13.2" y1="0" y2="22" class="st3"/><line id="line3997" x1="8.8" x2="8.8" y1="22" y2="0" class="st3"/><line id="line3999" x1="9.9" x2="9.9" y1="22" y2="0" class="st3"/><line id="line4001" x1="0" x2="22" y1="7.7" y2="7.7" class="st3"/><line id="line4003" x1="0" x2="22" y1="14.3" y2="14.3" class="st3"/><line id="line4005" x1="0" x2="22" y1="9.9" y2="9.9" class="st3"/><line id="line4007" x1="0" x2="22" y1="8.8" y2="8.8" class="st3"/><line id="line4009" x1="22" x2="0" y1="13.2" y2="13.2" class="st3"/><line id="line4011" x1="22" x2="0" y1="12.1" y2="12.1" class="st3"/><line id="line4013" x1="1.1" x2="1.1" y1="0" y2="22" class="st3"/><line id="line4015" x1="20.9" x2="20.9" y1="0" y2="22" class="st3"/><line id="line4017" x1="0" x2="22" y1="1.1" y2="1.1" class="st3"/><line id="line4019" x1="0" x2="22" y1="20.9" y2="20.9" class="st3"/></g><path id="path4029" stroke-width=".041" d="M 5.5284133,10.996398 V 5.5365314 h 5.4797047 5.479705 v 5.4643796 c 0,4.365977 -0.0102,5.456264 -0.05074,5.424004 -0.02791,-0.02221 -1.227049,-0.976745 -2.664763,-2.121197 -1.437714,-1.144451 -2.636673,-2.0829 -2.664354,-2.085442 -0.0423,-0.0039 -1.059927,0.768358 -5.1427487,3.90266 l -0.436806,0.335328 z"/><path id="path4031" stroke-width=".041" d="M 1.8346863,10.935055 V 1.802214 h 9.1797697 9.179771 l -0.02656,3.2776753 c -0.01461,1.8027214 -0.0386,5.9124997 -0.05332,9.1328417 l -0.02675,5.855166 H 10.961139 1.8346863 Z M 18.710252,11.006089 18.7,3.2837638 10.99797,3.2735114 3.295941,3.2632589 v 7.7325771 7.732577 h 7.712282 7.712281 z"/></svg>